# xmcd CD database file
#
# Track frame offsets:
#	150
#	23814
#	54452
#	82698
#	109894
#	141633
#	166766
#	197825
#	216765
#	231164
#	257374
#	287752
#
# Disc length: 4048 seconds
#
# Revision: 0
# Processed by: cddbd v1.4PL0 Copyright (c) Steve Scherf et al.
# Submitted via: CDex 1.50beta8
#
DISCID=a30fce0c
DTITLE=David Sanborn - David Sanborn
DYEAR=1900
DGENRE=Jazz
TTITLE0=It's You
TTITLE1=Maputo
TTITLE2=More Than Friends
TTITLE3=Try A Little Tenderness
TTITLE4=Snakes
TTITLE5=Crossfire
TTITLE6=Full House
TTITLE7=Soul Serenade
TTITLE8=You Are Everything
TTITLE9=Since I Fell You
TTITLE10=Another Hand
TTITLE11=St Elmo's Fire
EXTD=
EXTT0=
EXTT1=
EXTT2=
EXTT3=
EXTT4=
EXTT5=
EXTT6=
EXTT7=
EXTT8=
EXTT9=
EXTT10=
EXTT11=
PLAYORDER=
